<?xml version="1.0" encoding="utf-8"?>
<!-- Generator: Adobe Illustrator 21.0.0, SVG Export Plug-In . SVG Version: 6.00 Build 0)  -->
<svg version="1.1" fill="#369AFD" xmlns="http://www.w3.org/2000/svg" xmlns:xlink="http://www.w3.org/1999/xlink" viewBox="0 0 402.5 447.9" style="enable-background:new 0 0 402.5 447.9;" xml:space="preserve">
<g id="XMLID_246_">
	<path id="XMLID_247_" d="M346.7,175.6c4.6-4.8,7.1-11,6.9-17.7c-0.1-4.5-1.4-8.7-3.6-12.4l20.4-10.3
		c3,2.6,6.8,4.2,11,4.3c9.5,0.2,17.4-7.4,17.6-17c0.2-9.5-7.4-17.4-17-17.6c-9.5-0.2-17.4,7.4-17.6,17c-0.1,3.9,1.2,7.5,3.3,10.4
		l-19.9,10c-4.6-5.5-11.6-9.1-19.3-9.1l-0.2,0c-6.7,0.1-12.9,2.7-17.6,7.5c-4.6,4.8-7.1,11-6.9,17.7c0.3,12.9,10.6,23.7,23.5,24.5
		c0.2,0,0.3,0,0.5,0v22c-4.6,0.1-9.1,1.5-13,4.2c-10.7,7.2-14.2,21.7-7.9,33c0.3,0.5,0.6,1.1,1,1.6c3.7,5.6,9.3,9.4,15.8,10.7
		c1.4,0.3,2.8,0.4,4.2,0.5v18.8c-4.2,0.1-8.3,1.4-12,3.6c-11,6.7-15.1,21.1-9.3,32.7c0.2,0.5,0.5,0.9,0.8,1.4l0.1,0.2l-17,9.8
		c-2.4-3.9-5.9-7-10.1-9.1c-11.6-5.6-25.9-1.3-32.5,9.8c-0.3,0.5-0.6,1.1-0.9,1.6c-3,6-3.5,12.8-1.3,19.1c0.5,1.6,1.2,3.1,2.1,4.5
		c2.5,4.2,6.1,7.6,10.5,9.7c3.5,1.7,7.2,2.5,10.8,2.5c9.2,0,18.2-5.1,22.6-13.9l0,0c3-6,3.5-12.8,1.3-19.1c-0.1-0.4-0.3-0.7-0.4-1.1
		l17.7-10.2c3.3,3.8,7.7,6.5,12.6,7.7c2,0.5,4,0.7,5.9,0.7c4.5,0,8.9-1.2,12.8-3.6c11.5-7.1,15.4-22.3,8.5-34.1l-0.1-0.2
		c-3.4-5.7-8.9-9.8-15.3-11.4c-0.7-0.2-1.5-0.3-2.2-0.4v-19.4c3.5-0.6,6.9-1.9,9.9-3.9c11.3-7.6,14.5-23.1,7-34.6l0,0
		c-3.7-5.6-9.3-9.4-15.8-10.7c-0.4-0.1-0.7-0.1-1.1-0.2v-22.5C337.8,182.1,342.8,179.6,346.7,175.6z"/>
	<path id="XMLID_248_" class="st0" d="M222.8,357c-6.6-11.1-20.9-15.4-32.5-9.8c-5.3,2.6-9.4,6.9-11.8,12.2l-22-12.7
		c0.6-1.2,1.1-2.4,1.5-3.6c2.1-6.3,1.7-13.1-1.3-19.1c-0.3-0.5-0.6-1.1-0.9-1.6c-6.6-11.1-20.9-15.4-32.5-9.8
		c-4.2,2.1-7.7,5.2-10.1,9.1l-17-9.8c0,0,0,0,0,0l0.1-0.2c0.3-0.5,0.5-0.9,0.8-1.4c5.8-11.6,1.7-25.9-9.3-32.7
		c-3.8-2.3-8-3.5-12.3-3.6v-18.8c1.5,0,3-0.2,4.4-0.5c6.5-1.3,12.1-5.1,15.8-10.7c0.3-0.5,0.7-1,1-1.6c6.3-11.3,2.8-25.8-7.9-33
		c-5.5-3.7-12.1-5-18.6-3.7c-6.5,1.3-12.1,5.1-15.8,10.7l0,0c-7.5,11.5-4.4,27,7,34.6c2.9,2,6.2,3.3,9.6,3.8v19.4
		c-0.7,0.1-1.3,0.2-2,0.4c-6.5,1.6-11.9,5.6-15.3,11.4l-0.1,0.2c-6.8,11.7-3,27,8.5,34.1c3.9,2.4,8.3,3.6,12.8,3.6
		c2,0,4-0.2,5.9-0.7c5-1.2,9.3-3.9,12.6-7.7l17.7,10.2c-0.1,0.4-0.3,0.7-0.4,1.1c-2.1,6.3-1.7,13.1,1.3,19.1l0,0
		c4.4,8.8,13.3,13.9,22.6,13.9c3.7,0,7.4-0.8,10.8-2.5c3.4-1.6,6.2-4,8.5-6.8l23.1,13.3c-1.3,5.6-0.6,11.4,2,16.6l0,0
		c4.1,8.1,12,13.1,20.5,13.8v18.3c-8.3,1.1-14.9,8.2-15,16.8c0,1,0.1,2,0.2,3c1.3,8.4,8.6,14.8,17.4,14.7c9.5-0.2,17.1-8.1,17-17.6
		c0-0.7-0.1-1.3-0.2-2c0-0.2,0-0.3-0.1-0.5c0-0.1,0-0.1,0-0.2c-1.3-7.7-7.6-13.6-15.5-14.3v-18.2c3.1-0.2,6.2-1,9.2-2.4
		c4.4-2.2,8.1-5.5,10.5-9.7c0.8-1.4,1.5-2.9,2.1-4.5c2.1-6.3,1.7-13.1-1.3-19.1C223.4,358.1,223.1,357.6,222.8,357z"/>
	<path id="XMLID_249_" class="st0" d="M56.9,175.7c4.6,4.8,10.9,7.4,17.6,7.5l0.2,0c0.5,0,1.1,0,1.6-0.1
		c12.9-0.8,23.3-11.6,23.5-24.5c0.1-5.7-1.7-11.1-5.1-15.5l19.9-11.5c1.9,3.5,4.6,6.5,8,8.8c4.1,2.7,8.8,4.2,13.7,4.2
		c1.6,0,3.3-0.2,4.9-0.5c6.5-1.3,12.1-5.1,15.8-10.7c0.3-0.5,0.7-1,1-1.6c4.4-8,4-17.6-0.4-25l20.8-12c0.4,1.2,0.9,2.4,1.5,3.6
		c0.2,0.5,0.5,0.9,0.8,1.4l0.1,0.2c3.4,5.7,8.9,9.8,15.3,11.4c2,0.5,4,0.7,5.9,0.7c4.5,0,8.9-1.2,12.8-3.6c5.2-3.2,8.8-8,10.6-13.4
		l20.4,11.8c-4.3,7.4-4.7,16.9-0.3,24.8c0.3,0.5,0.6,1.1,1,1.6c3.7,5.6,9.3,9.4,15.8,10.7c1.6,0.3,3.3,0.5,4.9,0.5
		c4.9,0,9.6-1.4,13.7-4.2c11.3-7.6,14.5-23.1,7-34.6l0,0c-3.7-5.6-9.3-9.4-15.8-10.7c-6.5-1.3-13.1,0-18.6,3.7
		c-1.9,1.3-3.6,2.8-5,4.5l-21.9-12.7c0.7-5.4-0.2-11-3.2-16l0,0c0,0,0,0,0,0l-0.1-0.2c-3.4-5.7-8.9-9.8-15.3-11.4
		c-6.4-1.6-13.1-0.6-18.8,2.9c-8.5,5.2-12.9,14.9-11.8,24.4l-22.4,13c-1.4-1.6-3-3.1-4.8-4.3c-5.5-3.7-12.1-5-18.6-3.7
		c-6.5,1.3-12.1,5.1-15.8,10.7l0,0c-4.3,6.6-5.1,14.5-2.9,21.6l-21.3,12.3c-4.5-4-10.2-6.2-16.2-6.3l-0.2,0
		c-6.4,0-12.3,2.4-16.7,6.4l-21.2-11.8c0.6-1.8,0.9-3.6,0.8-5.6c-0.2-9.5-8.1-17.1-17.6-17c-9.5,0.2-17.1,8.1-17,17.6
		s8.1,17.1,17.6,17c6.2-0.1,11.6-3.5,14.6-8.5l20,11.2c-3.4,4.2-5.6,9.5-5.7,15.3C49.8,164.7,52.2,171,56.9,175.7z"/>
	
		<ellipse id="XMLID_250_" transform="matrix(1.809276e-02 -0.9998 0.9998 1.809276e-02 -266.3455 530.0253)" class="st0" cx="136.7" cy="400.6" rx="17.3" ry="17.3"/>
	
		<ellipse id="XMLID_251_" transform="matrix(1.809276e-02 -0.9998 0.9998 1.809276e-02 -293.3077 435.8901)" class="st0" cx="75.3" cy="367.3" rx="17.3" ry="17.3"/>
	
		<ellipse id="XMLID_252_" transform="matrix(1.808982e-02 -0.9998 0.9998 1.808982e-02 -309.495 342.4595)" class="st0" cx="19.6" cy="328.8" rx="17.3" ry="17.3"/>
	
		<ellipse id="XMLID_253_" transform="matrix(0.9998 -1.808404e-02 1.808404e-02 0.9998 -7.131 4.819)" class="st0" cx="262.9" cy="396.7" rx="17.3" ry="17.3"/>
	
		<ellipse id="XMLID_254_" transform="matrix(0.9998 -1.808698e-02 1.808698e-02 0.9998 -6.5191 5.925)" class="st0" cx="324.3" cy="363.4" rx="17.3" ry="17.3"/>
	<path id="XMLID_255_" class="st0" d="M202.1,37.7c8.5-0.2,15.4-6.3,16.7-14.4c0-0.1,0-0.1,0-0.2c0-0.2,0.1-0.3,0.1-0.5
		c0.1-0.6,0.1-1.3,0.2-2c0.2-9.5-7.4-17.4-17-17.6c-8.8-0.2-16.1,6.2-17.4,14.7c-0.2,1-0.2,2-0.2,3
		C184.7,30.3,192.6,37.9,202.1,37.7z"/>
	
		<ellipse id="XMLID_256_" transform="matrix(0.9998 -1.808987e-02 1.808987e-02 0.9998 -0.9461 2.5539)" class="st0" cx="140.7" cy="53.6" rx="17.3" ry="17.3"/>
	
		<ellipse id="XMLID_257_" transform="matrix(0.9998 -1.808982e-02 1.808982e-02 0.9998 -1.5593 1.4485)" class="st0" cx="79.3" cy="86.9" rx="17.3" ry="17.3"/>
	
		<ellipse id="XMLID_258_" transform="matrix(0.4612 -0.8873 0.8873 0.4612 -158.1391 118.6989)" class="st0" cx="18.7" cy="189.6" rx="17.3" ry="17.3"/>
	
		<ellipse id="XMLID_259_" transform="matrix(0.4612 -0.8873 0.8873 0.4612 -220.1403 156.3501)" class="st0" cx="18.7" cy="259.4" rx="17.3" ry="17.3"/>
	
		<ellipse id="XMLID_260_" transform="matrix(1.808404e-02 -0.9998 0.9998 1.808404e-02 204.6758 315.3481)" class="st0" cx="262.9" cy="53.5" rx="17.3" ry="17.3"/>
	
		<ellipse id="XMLID_261_" transform="matrix(1.808693e-02 -0.9998 0.9998 1.808693e-02 231.6377 409.4832)" class="st0" cx="324.3" cy="86.8" rx="17.3" ry="17.3"/>
	
		<ellipse id="XMLID_262_" transform="matrix(0.8873 -0.4612 0.4612 0.8873 -43.9934 198.8622)" class="st0" cx="384.9" cy="189.5" rx="17.3" ry="17.3"/>
	
		<ellipse id="XMLID_285_" transform="matrix(0.8873 -0.4612 0.4612 0.8873 -76.2174 206.7355)" class="st0" cx="384.9" cy="259.3" rx="17.3" ry="17.3"/>
	
		<ellipse id="XMLID_286_" transform="matrix(0.8873 -0.4612 0.4612 0.8873 -108.184 213.5265)" class="st0" cx="382.8" cy="328.1" rx="17.3" ry="17.3"/>
	<path id="XMLID_287_" class="st0" d="M111,265.1c0,2,0.2,3.9,0.7,5.7c5.5-3.5,14.8-8.9,27.6-14.8c-10.3-0.6-21.7-0.7-28.3-0.8
		V265.1z"/>
	<path id="XMLID_288_" class="st0" d="M293.4,245.6c-48.1,5-87,19-111.6,30.1c-20,9-33.8,17.5-40,21.6l22.6,13.1l-0.9-1.1l0.4-0.4
		c0.6-0.5,15.5-12.1,39.3-24.9c21.5-11.6,54.4-26.3,90.1-31.3V245.6z"/>
	<path id="XMLID_289_" class="st0" d="M293.4,230.5c-26.6,0.4-52.7,3.2-77.5,8.3c-20.4,4.2-40.1,10.1-58.4,17.3
		c-0.7,0.3-1.5,0.6-2.2,0.9l-0.1,0.5l-0.6-0.1c-0.1,0-0.1,0-0.2,0c-20,8.2-33.6,16.2-40.1,20.4c2.1,3.6,5.2,6.8,9,8.9l11.4,6.6
		c3.9-2.8,19.1-13,43.8-24.2c25.2-11.4,65.3-25.8,114.8-30.9V230.5z"/>
	<path id="XMLID_290_" class="st0" d="M154.9,249.3c8.2-3.3,16.6-6.2,25.3-8.9c-30.1-5-57-5.1-69.2-4.8v12.3
		c9.7,0.1,30.2,0.4,42.6,1.9C154.1,249.7,154.5,249.5,154.9,249.3z"/>
	<path id="XMLID_291_" class="st0" d="M214.7,325l66.3-38.3c5-2.9,8.7-7.4,10.8-12.6c-27.5,7.5-51.6,21.6-67.2,32.4
		c-13.5,9.3-23,17.6-27,21.3C203.3,329,209.4,328,214.7,325z"/>
	<path id="XMLID_292_" class="st0" d="M293.4,265.1v-5c-34.2,4.9-65.8,19.1-86.5,30.3c-19.1,10.3-32.6,20-36.9,23.2l19.7,11.4
		c0,0,0.1,0,0.1,0.1l0.4-0.4c0.5-0.5,11.5-11.3,30-24c16.8-11.6,43.1-26.9,73.2-34.5C293.4,265.8,293.4,265.5,293.4,265.1z"/>
	<path id="XMLID_295_" class="st0" d="M293.4,188.6c0-8.9-4.8-17.1-12.5-21.6l-66.3-38.3c-7.7-4.5-17.2-4.5-24.9,0L123.5,167
		c-7.7,4.5-12.5,12.7-12.5,21.6v39.8c14.6-0.3,48.9-0.1,84.8,7.6c6.1-1.6,12.3-3,18.6-4.3c25.3-5.2,51.8-8.1,79-8.5V188.6z
		 M147.2,190c-3.5-2.4-7.6-3.6-12.3-3.6c-2.1,0-3.9,0.3-5.5,0.8c-1.2,0.4-2.1,1-2.8,1.7c-0.7,0.8-1.1,1.6-1.1,2.5
		c0,1.5,0.9,2.5,2.7,3c0.9,0.3,3,0.6,6,0.9l4.6,0.5c2.7,0.3,5,0.7,6.6,1.2c1.7,0.5,3.2,1.2,4.5,2.1c1.3,0.9,2.4,2.2,3.2,3.7
		c0.8,1.5,1.2,3.2,1.2,4.9c0,2.8-0.9,5.2-2.7,7.4c-1.6,2-4.2,3.4-7.7,4.4c-2.6,0.7-5.3,1.1-8.3,1.1c-5.3,0-10.5-1.3-15.7-3.8
		c-1.1-0.5-1.7-0.8-2-0.8c-0.3,0-0.7,0.2-1.2,0.6l-0.9-0.4l4.3-9.7l0.9,0.4c0,0.2,0,0.3,0,0.4c0,0.9,0.4,1.7,1.3,2.4
		c1.3,1.1,3.2,2.1,5.9,2.9c2.7,0.8,5.2,1.2,7.6,1.2c2.6,0,4.8-0.4,6.7-1.3c1-0.5,1.8-1.1,2.4-1.9c0.6-0.8,0.9-1.6,0.9-2.5
		c0-1.3-0.7-2.2-2.1-2.8c-1-0.4-3-0.7-6-1.1l-4.5-0.5c-3-0.3-5.2-0.6-6.4-0.9c-1.3-0.3-2.5-0.7-3.8-1.3c-1.8-0.9-3.2-2.2-4.2-3.9
		c-0.9-1.6-1.4-3.4-1.4-5.4c0-3.3,1.2-6.1,3.5-8.3c3-2.9,7.6-4.3,13.7-4.3c2.6,0,4.9,0.3,7.2,0.8c2.2,0.5,5,1.5,8.3,2.8
		c1.1,0.4,1.8,0.7,2.1,0.7c0.4,0,0.9-0.2,1.4-0.7l0.8,0.4l-4.8,9.3l-0.8-0.5c0-0.2,0-0.3,0-0.5C148.9,191.5,148.3,190.8,147.2,190z
		 M204,201.1c-0.7,0.2-1.2,0.4-1.5,0.8c-0.3,0.3-0.4,0.8-0.4,1.4v8.1c0,0.6,0.1,1.1,0.4,1.4c0.3,0.3,0.8,0.6,1.5,0.8v0.7
		c-7.6,4.3-15,6.4-22.1,6.4c-6.5,0-11.7-1.5-15.8-4.5c-5.1-3.8-7.7-9.1-7.7-15.9c0-6.3,2.3-11.4,6.9-15.1c4.3-3.5,10.1-5.3,17.3-5.3
		c2.3,0,4.4,0.2,6.5,0.6c2,0.4,4.3,1.1,6.9,2.1c1.3,0.5,2.3,0.8,2.8,0.8c0.4,0,0.9-0.2,1.4-0.7l0.8,0.4l-4.7,9.5l-0.8-0.4
		c0-0.6-0.1-1.1-0.3-1.4c-0.2-0.3-0.5-0.6-1.1-1c-1.2-0.9-2.9-1.6-5.2-2.3c-2.3-0.6-4.5-0.9-6.5-0.9c-4.2,0-7.6,1.2-10.4,3.5
		c-3.1,2.6-4.7,6.1-4.7,10.4c0,4.2,1.5,7.5,4.5,10.1c2.8,2.4,6.4,3.5,11,3.5c2.2,0,4.4-0.3,6.5-0.8c2.2-0.5,4-1.2,5.6-2.1v-5.4H185
		c-0.6,0-1.1,0.1-1.4,0.4c-0.3,0.3-0.6,0.8-0.7,1.4h-0.9v-9.2h0.9c0.2,0.7,0.4,1.2,0.7,1.5c0.3,0.3,0.8,0.4,1.4,0.4h19V201.1z
		 M249.1,181.3c-0.9,0.1-1.6,0.4-2.3,1c-0.6,0.5-1.5,1.6-2.6,3.1l-12.9,18v13.5c0,0.6,0.1,1.1,0.4,1.4c0.3,0.3,0.8,0.6,1.5,0.8v0.9
		h-12.6V219c0.7-0.2,1.2-0.4,1.5-0.8c0.3-0.3,0.4-0.8,0.4-1.4v-13.5l-12.9-18c-1.1-1.5-2-2.6-2.6-3.1c-0.6-0.5-1.4-0.9-2.3-1v-0.9
		h15.8v0.9c-1.3,0.2-2,0.8-2,1.8c0,0.3,0.4,1.1,1.2,2.3l7.2,10.6l7.4-10.6c0.8-1.1,1.2-1.9,1.2-2.3c0-0.4-0.2-0.8-0.5-1.1
		c-0.4-0.3-0.8-0.5-1.4-0.6v-0.9h15.5V181.3z M289,221.8H288c-0.2-0.7-0.4-1.2-0.8-1.4c-0.3-0.3-0.8-0.4-1.4-0.4h-35.2V219
		c0.7-0.2,1.2-0.4,1.5-0.8c0.3-0.3,0.4-0.8,0.4-1.4v-33.4c0-0.6-0.1-1.1-0.4-1.4c-0.3-0.3-0.8-0.6-1.5-0.8v-0.9h12.5v0.9
		c-0.7,0.2-1.2,0.4-1.5,0.7c-0.3,0.3-0.4,0.8-0.4,1.4v30h24.6c0.6,0,1.1-0.1,1.4-0.4c0.3-0.3,0.6-0.8,0.8-1.4h0.9V221.8z"/>
</g>
</svg>
